<svg xmlns="http://www.w3.org/2000/svg" width="73.983" height="82.37" viewBox="0 0 73.983 82.37"><g transform="translate(-71.86 -34.638)"><path d="M71.86,40.223V38.194a2.318,2.318,0,0,0,.083-1.916l.051-.3.225-.338a1.491,1.491,0,0,1,1.368-.933A13.947,13.947,0,0,1,75.2,34.64h67.529a2.958,2.958,0,0,1,2.493.774,1.725,1.725,0,0,1,.5,1.182c0,.781.024,1.563.024,2.345v33.14c0,1.779-.725,2.544-2.514,2.586-1.344.032-2.688,0-4.032.014a2.521,2.521,0,0,1-1.5-.676,21.446,21.446,0,0,1-5.411-5.773,45.352,45.352,0,0,1-5.013-11.023c-.528-1.651-.98-3.323-1.383-5.009-.125-.525-.357-.636-.889-.486a59.539,59.539,0,0,1-11.242,1.916,65.337,65.337,0,0,1-13.236-.338,49.09,49.09,0,0,1-7.255-1.41c-.258-.072-.522-.126-.789-.183-.422-.09-.631.1-.723.511a55.563,55.563,0,0,1-4.058,11.9,28.726,28.726,0,0,1-5.386,7.957,1.575,1.575,0,0,0-1.392.789A3.936,3.936,0,0,1,78.1,74.365c-1.285.113-2.587.036-3.881.039a2.044,2.044,0,0,1-1.1-.318,2.22,2.22,0,0,1-1.046-2.1q.032-15.211.01-30.416A2.041,2.041,0,0,0,71.86,40.223Z" fill="#de3f54"/><path d="M257.223,289.739c-1.4-1.091-3.024-.658-3.406.9a1.982,1.982,0,0,0,.152,1.285c.149.347,0,.481-.345.533-.7.1-1.24-.293-1.663-1.255-.387-.891-.387-.859-1.249-.442-1.532.753-3.049,1.53-4.529,2.378a.644.644,0,0,1-.852-.113c-1.513-1.3-3.044-2.582-4.568-3.875-1.891-1.606-3.772-3.227-5.677-4.818a1.387,1.387,0,0,1-.59-1.178c.073-3.518.091-7.036.2-10.553a5.844,5.844,0,0,1,3.5-5.545c2.406-1.127,4.873-2.1,7.352-3.044,2.849-1.086,5.749-2,8.689-2.836a19.886,19.886,0,0,1,6.923-.992,10.033,10.033,0,0,1,5.411,1.784c1.774,1.32,2.34,3.293,2.614,5.378a26.1,26.1,0,0,1,.126,3.293,1.124,1.124,0,0,1-.92,1.2q-5.386,1.772-10.75,3.607c-.329.113-.879.135-.9.463-.025.356.523.444.836.6,2.376,1.194,4.766,2.36,7.145,3.544,1.1.547,1.374,1.021,1.193,1.973a2.254,2.254,0,0,1-2.074,1.857,103.571,103.571,0,0,1-13.612-.495c-2.593-.2-2.165-.4-2.48,2-.163,1.259-.358,2.514-.521,3.773-.045.352-.241.8.074,1.042.338.258.676-.135,1-.257a13.087,13.087,0,0,1,1.8-.777,1.758,1.758,0,0,0,1.033-.309,7.553,7.553,0,0,1,4.37-.858,2.46,2.46,0,0,1,2.413,1.9Zm-8.11-22.02a1.517,1.517,0,0,0-1.631-1.562,1.619,1.619,0,1,0,1.631,1.562Z" transform="translate(-144.304 -200.094)" fill="#de3f54"/><path d="M581.683,422.451v9.091c0,1.749-.8,2.542-2.564,2.544q-7.006.007-14.006.007c-1.748,0-2.367-.808-1.832-2.4,1.42-4.262,2.982-8.47,4.791-12.583a40.231,40.231,0,0,1,2.958-5.626,5.656,5.656,0,0,1,5.237-2.876c1.049.036,2.1,0,3.156,0a2.04,2.04,0,0,1,2.219,1.949,7.378,7.378,0,0,1,.059,1.022q.007,4.437,0,8.871Z" transform="translate(-435.861 -333.584)" fill="#de3f54"/><path d="M330.961,704.8c-2.367,0-4.734-.007-7.1,0-.558,0-.876-.176-.877-.789a30.713,30.713,0,0,1,.06-3.365,3.961,3.961,0,0,1,3.861-3.52q4.1-.041,8.2,0a3.986,3.986,0,0,1,3.79,3.521c.077,1.142.029,2.293.046,3.439.009.626-.383.689-.877.687-2.367-.009-4.734,0-7.1,0Z" transform="translate(-222.801 -587.796)" fill="#de3f54"/><path d="M495.531,704.917c-2.367,0-4.734-.016-7.107.011-.646.007-.941-.176-.9-.87.045-.9,0-1.8.017-2.705a4.02,4.02,0,0,1,4.155-4.081q3.774-.015,7.552,0a3.97,3.97,0,0,1,4.254,4.037c.045.95-.006,1.905.013,2.858.012.564-.225.772-.789.759-1.2-.029-2.393-.01-3.589-.01h-3.6Z" transform="translate(-368.805 -587.934)" fill="#de3f54"/><path d="M178.3,704.783c-2.345,0-4.69-.019-7.035.011-.7.008-.982-.225-.949-.935.043-.95.007-1.9.046-2.856a3.926,3.926,0,0,1,3.844-3.849c2.759-.054,5.523-.06,8.279,0a3.931,3.931,0,0,1,3.8,3.816c.039.975,0,1.953.021,2.931.015.639-.216.98-.9.875a.524.524,0,0,0-.073,0H178.3Z" transform="translate(-87.359 -587.797)" fill="#de3f54"/><path d="M411.9,617.6v-.278a6.736,6.736,0,0,1,2.449-3.137c.107-.065.148-.241.219-.366l.017-.012q2.874,0,5.749.008c1.79.01,3.6-.177,5.325.528a1.559,1.559,0,0,0,.5.024h0a1.817,1.817,0,0,0,.172.4,5.84,5.84,0,0,1,1.223,3.939c-.024.517-.035.839-.7.761-.693-.081-1.4-.057-2.1-.071-.392-.007-.732.084-.813.549a3.986,3.986,0,0,0-2.162.981,1.312,1.312,0,0,1-.907.356c-1.145,0-2.289-.009-3.435,0a1.4,1.4,0,0,1-.929-.353,5.458,5.458,0,0,0-1.944-.978c-.212-.8-.88-.555-1.391-.564-.715-.007-1.115-.253-1.1-1.015A1.5,1.5,0,0,0,411.9,617.6Z" transform="translate(-301.71 -513.872)" fill="#de3f54"/><path d="M248.15,616.644c.012-.087.024-.175.035-.262a1.3,1.3,0,0,0,.564-1.172l.014-.009a.713.713,0,0,0,.558-.605h0a4.935,4.935,0,0,0,.676-.245,5.886,5.886,0,0,1,2.948-.631c2.748.044,5.5.012,8.247.011h.009a1.092,1.092,0,0,0,.6.7,3.959,3.959,0,0,1,1.567,1.765,5.425,5.425,0,0,1,.351,2.263c.048.658-.2.834-.763.836q-1.127,0-2.261.016c-.395,0-.73.1-.812.564a3.619,3.619,0,0,0-1.518.683c-1.176,1.079-2.575.564-3.893.553-.257,0-.5-.349-.765-.524a4.251,4.251,0,0,0-2.325-.746,1.02,1.02,0,0,0-.8-.265c-.51-.006-1.02-.016-1.53-.009-.609.009-.887-.272-.876-.886C248.183,618,248.159,617.324,248.15,616.644Z" transform="translate(-156.418 -513.805)" fill="#de3f54"/><path d="M86.4,420.07a5.9,5.9,0,0,0,.615,1.871,12.46,12.46,0,0,1,.963,2.6,1.4,1.4,0,0,0,.782,1.09,21.562,21.562,0,0,0,1.015,3.2c.618,1.8,1.282,3.6,1.893,5.411.384,1.137-.157,1.89-1.37,1.895q-7.214.027-14.429.013a2,2,0,0,1-2.029-2.029c-.016-.488,0-.976-.007-1.465V416.982a15.572,15.572,0,0,1,.21-3.063,3.071,3.071,0,0,1,2.316-.652c1.6.085,3.214-.171,4.791.3a1.849,1.849,0,0,1,.861.367,14.978,14.978,0,0,1,3.72,5.228A1.4,1.4,0,0,0,86.4,420.07Z" transform="translate(-1.753 -335.941)" fill="#de3f54"/></g></svg>