<svg xmlns="http://www.w3.org/2000/svg" width="34.891" height="33.168" viewBox="0 0 34.891 33.168"><path d="M74.3,98.326c-1.4-1.093-3.03-.66-3.412.906a2,2,0,0,0,.15,1.288c.15.35,0,.482-.346.534-.705.1-1.247-.293-1.666-1.257-.388-.894-.39-.868-1.251-.444-1.532.755-3.055,1.532-4.536,2.383a.646.646,0,0,1-.851-.109c-1.517-1.305-3.054-2.588-4.577-3.883-1.9-1.61-3.779-3.234-5.688-4.828a1.389,1.389,0,0,1-.59-1.18c.073-3.524.089-7.05.2-10.574A5.862,5.862,0,0,1,55.244,75.6c2.411-1.132,4.883-2.107,7.367-3.054,2.853-1.088,5.767-2.009,8.706-2.842a19.954,19.954,0,0,1,6.938-.994A10.077,10.077,0,0,1,83.677,70.5c1.777,1.329,2.344,3.3,2.62,5.387a26.21,26.21,0,0,1,.127,3.3,1.119,1.119,0,0,1-.923,1.2Q80.106,82.166,74.729,84c-.33.112-.882.136-.905.464-.025.357.524.445.838.6,2.381,1.2,4.775,2.364,7.158,3.551,1.1.548,1.377,1.023,1.194,1.976a2.262,2.262,0,0,1-2.075,1.863,103.58,103.58,0,0,1-13.639-.5c-2.6-.2-2.17-.4-2.481,2.006-.164,1.261-.359,2.519-.522,3.78-.046.35-.242.8.075,1.044.335.258.677-.136,1-.258a12.653,12.653,0,0,1,1.809-.778,1.759,1.759,0,0,0,1.035-.309,7.571,7.571,0,0,1,4.379-.86,2.465,2.465,0,0,1,2.417,1.906ZM66.176,76.262A1.519,1.519,0,0,0,64.541,74.7a1.621,1.621,0,1,0,1.635,1.565Z" transform="translate(-51.532 -68.68)" fill="#de3f54"/></svg>